<svg xmlns="http://www.w3.org/2000/svg" viewBox="-42.75 -48.822 85.5467 97.3921">
  <path d="M 42.7967 -7.5 V -23.533 c 0 -0.0819 -0.0072 -0.1637 -0.0169 -0.2432 c -0.0024 -0.0193 -0.0024 -0.0386 -0.0048 -0.0602 c -0.0169 -0.1325 -0.0481 -0.2625 -0.0891 -0.3901 c -0.0096 -0.0338 -0.0217 -0.0674 -0.0338 -0.1012 c -0.0481 -0.1325 -0.1012 -0.2601 -0.171 -0.3829 c 0 0 0 0 0 0 c 0 0 0 0 0 0 c -0.0698 -0.1205 -0.1541 -0.2312 -0.2432 -0.3396 c -0.0241 -0.0265 -0.0457 -0.0554 -0.0698 -0.0819 c -0.0891 -0.0963 -0.1854 -0.1879 -0.2914 -0.2697 c -0.0169 -0.0121 -0.0338 -0.0217 -0.0505 -0.0338 c -0.065 -0.0481 -0.13 -0.0939 -0.1999 -0.1348 l -40.2732 -23.2516 c -0.7273 -0.419 -1.6232 -0.419 -2.348 0 l -40.2732 23.2516 c -0.0698 0.041 -0.1348 0.0867 -0.1999 0.1325 c -0.0169 0.0121 -0.0362 0.0217 -0.0529 0.0362 c -0.106 0.0819 -0.2023 0.1734 -0.2914 0.2697 c -0.0241 0.0265 -0.0481 0.0529 -0.0722 0.0819 c -0.0891 0.106 -0.1734 0.2192 -0.2432 0.3396 c 0 0 0 0 0 0 c 0 0 0 0 0 0 c -0.0698 0.1205 -0.1253 0.2504 -0.171 0.3829 c -0.0121 0.0338 -0.0241 0.0674 -0.0338 0.1012 c -0.0386 0.1276 -0.0698 0.2553 -0.0891 0.3901 c -0.0024 0.0193 -0.0024 0.041 -0.0048 0.0602 c -0.0072 0.0795 -0.0169 0.1613 -0.0169 0.2432 L -42.75 -7.5 L 0 -18.75 M -42.75 7.5 V 22.9703 c 0 0.838 0.4479 1.6136 1.1752 2.035 l 40.2732 23.2516 c 0.0698 0.041 0.1445 0.0746 0.2192 0.1084 c 0.0169 0.0072 0.0338 0.0193 0.0529 0.0265 c 0.1253 0.0505 0.2529 0.0891 0.3805 0.118 c 0.0338 0.0072 0.0698 0.0145 0.1036 0.0193 c 0.1372 0.0241 0.277 0.041 0.4166 0.041 s 0.2794 -0.0169 0.4166 -0.041 c 0.0362 -0.0072 0.0698 -0.0121 0.1036 -0.0193 c 0.13 -0.0289 0.2577 -0.0674 0.3829 -0.118 c 0.0193 -0.0072 0.0338 -0.0169 0.0529 -0.0265 c 0.0746 -0.0338 0.1469 -0.0674 0.2192 -0.1084 l 40.2732 -23.2516 C 42.3512 24.5863 42.7967 23.8108 42.7967 22.9703 V 7.5 L 0 18.75 M -12 0 A 0.75 0.75 90 0 0 12 0 A 0.75 0.75 90 0 0 -12 0 Z" stroke="#927272" stroke-width="0.8" fill="#5F1111"/>
</svg>