<svg xmlns="http://www.w3.org/2000/svg" viewBox="-57 -65.0961 114.0623 129.8561">
  <path d="M 57.0623 -10 V -31.3773 c 0 -0.1092 -0.0096 -0.2183 -0.0225 -0.3243 c -0.0032 -0.0257 -0.0032 -0.0514 -0.0064 -0.0803 c -0.0225 -0.1766 -0.0642 -0.35 -0.1188 -0.5202 c -0.0128 -0.045 -0.0289 -0.0899 -0.045 -0.1349 c -0.0642 -0.1766 -0.1349 -0.3468 -0.228 -0.5105 c 0 0 0 0 0 0 c 0 0 0 0 0 0 c -0.0931 -0.1606 -0.2055 -0.3083 -0.3243 -0.4528 c -0.0321 -0.0353 -0.061 -0.0739 -0.0931 -0.1092 c -0.1188 -0.1284 -0.2472 -0.2505 -0.3885 -0.3596 c -0.0225 -0.0161 -0.045 -0.0289 -0.0674 -0.045 c -0.0867 -0.0642 -0.1734 -0.1252 -0.2665 -0.1798 l -53.6976 -31.0022 c -0.9697 -0.5587 -2.1642 -0.5587 -3.1307 0 l -53.6976 31.0022 c -0.0931 0.0546 -0.1798 0.1156 -0.2665 0.1766 c -0.0225 0.0161 -0.0482 0.0289 -0.0706 0.0482 c -0.1413 0.1092 -0.2697 0.2312 -0.3885 0.3596 c -0.0321 0.0353 -0.0642 0.0706 -0.0963 0.1092 c -0.1188 0.1413 -0.2312 0.2922 -0.3243 0.4528 c 0 0 0 0 0 0 c 0 0 0 0 0 0 c -0.0931 0.1606 -0.167 0.3339 -0.228 0.5105 c -0.0161 0.045 -0.0321 0.0899 -0.045 0.1349 c -0.0514 0.1702 -0.0931 0.3404 -0.1188 0.5202 c -0.0032 0.0257 -0.0032 0.0546 -0.0064 0.0803 c -0.0096 0.106 -0.0225 0.2151 -0.0225 0.3243 L -57 -10 L 0 -25 M -57 10 V 30.6271 c 0 1.1174 0.5972 2.1514 1.567 2.7133 l 53.6976 31.0022 c 0.0931 0.0546 0.1927 0.0995 0.2922 0.1445 c 0.0225 0.0096 0.045 0.0257 0.0706 0.0353 c 0.167 0.0674 0.3372 0.1188 0.5073 0.1573 c 0.045 0.0096 0.0931 0.0193 0.1381 0.0257 c 0.183 0.0321 0.3693 0.0546 0.5555 0.0546 s 0.3725 -0.0225 0.5555 -0.0546 c 0.0482 -0.0096 0.0931 -0.0161 0.1381 -0.0257 c 0.1734 -0.0385 0.3436 -0.0899 0.5105 -0.1573 c 0.0257 -0.0096 0.045 -0.0225 0.0706 -0.0353 c 0.0995 -0.045 0.1959 -0.0899 0.2922 -0.1445 l 53.6976 -31.0022 C 56.4682 32.7817 57.0623 31.7477 57.0623 30.6271 V 10 L 0 25 M -16 0 A 1 1 0 0 0 16 0 A 1 1 0 0 0 -16 0 Z" fill="#000000"/>
</svg>